<svg width="48" height="91" viewBox="0 0 48 91" fill="none" xmlns="http://www.w3.org/2000/svg">
<g clip-path="url(#clip0_7_2)">
<path d="M0.5 10.3811C0.606784 9.19997 1.03716 7.04808 1.52254 4.94148C1.99035 2.91121 2.22475 1.21692 2.60012 0.62312C2.76901 0.355943 3.29585 0.563258 3.67607 0.831841C5.2549 1.94711 5.67101 3.90274 6.96702 6.00449C7.2758 6.50524 7.61258 6.81509 8.25815 6.98012C11.2917 7.75563 15.8901 6.49797 19.2603 6.76654C22.1684 6.9983 24.763 2.19417 26.381 1.21368C26.7519 0.988948 27.2418 1.42402 27.4618 1.801C28.4278 3.45597 28.4326 5.41069 28.706 7.13868C28.9825 8.88558 29.5134 10.5882 29.6768 13.3905C29.8593 16.5195 29.7335 20.6196 28.7659 22.4544C28.3355 22.9948 27.6948 23.6355 27.2046 24.1257C26.7143 24.616 26.3939 24.9363 25.4167 25.59" stroke="white" stroke-linecap="round"/>
<path d="M0.5 11.6753C0.5 15.4257 1.14071 21.053 1.95292 22.5642C2.81144 24.1616 4.91382 24.509 6.64179 25.1562C7.50255 25.2662 8.36978 25.4798 9.23055 25.9636C9.66416 26.2338 10.0913 26.5541 11.5022 26.8842" stroke="white" stroke-linecap="round"/>
<path d="M8.26605 25.9136C7.83891 27.6254 6.97169 31.2982 6.38112 33.5633C5.90142 35.4033 5.25016 37.1229 4.65475 38.8508C4.03318 40.6548 2.55787 43.5818 1.68901 46.1301C0.779469 48.7977 0.49982 53.9174 1.30394 57.2423C3.51246 59.0205 6.09797 60.9652 8.47316 62.9036C9.0168 63.3404 9.44394 63.554 9.56043 63.1269" stroke="white" stroke-linecap="round"/>
<path d="M27.0347 25.9136C27.2482 27.7354 27.8954 31.4017 28.3274 33.6183C28.6837 35.4466 29.9405 37.55 30.9679 39.5514C32.0421 41.644 33.5001 43.6983 34.2055 45.6463C34.8406 47.4001 35.1245 51.8723 34.1586 55.2991C32.8626 57.0821 31.5715 58.5901 30.0069 59.6175C29.6267 59.8877 29.3063 60.208 28.329 60.5381" stroke="white" stroke-linecap="round"/>
<path d="M36.0955 56.6549C37.707 56.9753 40.7164 58.6935 42.6159 60.4781C44.4494 62.2008 45.9068 64.6282 46.986 68.2347C48.3974 72.9514 46.3534 79.3906 44.839 82.6929C42.85 87.0299 38.5872 88.3606 36.7491 89.066C34.9678 89.7497 33.2996 90.5222 29.9068 90.472C28.473 90.4509 27.6853 89.2343 27.0931 88.3735C25.9223 86.6716 26.1741 84.0633 26.2242 82.2786C26.2757 80.4471 29.3971 79.2094 31.6639 77.4798C34.458 75.3478 35.2282 73.0611 35.5017 71.2231C35.9306 68.3396 35.1312 64.214 34.1038 62.486C33.8336 62.0524 33.5132 61.6253 33.1346 61.1917C32.756 60.758 32.3289 60.3309 30.918 60.538" stroke="white" stroke-linecap="round"/>
<path d="M12.1152 57.7205C12.5352 59.1219 12.9594 60.8102 13.4142 62.3224C13.6539 63.1192 14.2236 63.6277 14.6795 63.9443C14.9007 64.0979 15.205 64.0519 15.4181 63.9126C16.1927 62.8595 17.3154 61.5953 17.7776 60.0156C17.8135 59.2801 17.8135 58.0962 17.8135 57.2984" stroke="white" stroke-linecap="round"/>
<path d="M19.0801 58.1426C19.2194 58.7715 19.7808 60.1771 20.4139 61.3041C21.1219 62.5643 22.1023 62.9249 22.6636 63.1011C22.9357 63.1865 23.225 63.0684 23.473 62.7888C24.6119 61.5044 24.4955 59.9787 25.268 58.2196C25.4115 57.7944 25.4115 57.4461 25.4463 57.1275C25.4811 56.8088 25.5508 56.5302 25.4115 56.2432" stroke="white" stroke-linecap="round"/>
<path d="M15.0703 18.8879H16.1255" stroke="white" stroke-linecap="round"/>
<path d="M10.4268 14.245V15.5113" stroke="white" stroke-linecap="round"/>
<path d="M20.7686 14.245V15.7223" stroke="white" stroke-linecap="round"/>
<path d="M8.0625 28.9801C8.49219 29.2216 8.92187 29.4372 9.42021 29.6658C9.88638 29.8796 10.723 29.9493 11.4257 30.0967C11.9354 30.2036 12.4224 30.2183 13.7975 30.2586C15.0122 30.2943 17.2782 30.2724 18.5252 30.2457C20.5275 30.2029 21.6558 30.0575 22.6105 30.0034C23.317 29.9634 23.9432 29.6811 24.5372 29.5459C25.0479 29.4296 25.5327 29.224 25.9515 29.0213C26.3915 28.8082 26.5576 28.2007 26.6788 27.9454C26.734 27.8291 26.72 27.7169 26.6667 27.6353C26.6134 27.5537 26.5068 27.5004 26.3985 27.4596C26.2903 27.4188 26.1837 27.3922 26.0888 27.4584C25.8544 27.622 25.7516 27.9293 25.4838 28.0504C24.6709 28.4183 23.4715 28.1724 22.5362 28.2394C21.6065 28.3061 20.8013 28.468 20.0457 28.5088C19.4984 28.5383 19.0228 28.7103 17.0088 28.7511C15.4202 28.7833 13.2624 28.7119 12.5484 28.59C11.3363 28.3829 10.6762 28.2806 10.2449 28.2398C9.81356 28.1191 9.38387 27.9575 8.96589 27.8231C8.87099 27.7694 8.79103 27.6894 8.62788 27.607" stroke="white" stroke-width="2" stroke-linecap="round"/>
<path d="M15.0084 28.657C14.9285 28.4155 14.6062 28.0399 14.1224 27.7831C13.6625 27.5389 13.1532 27.3647 12.7631 27.4846C11.9718 27.7279 12.2898 28.8428 12.1953 29.3282C12.082 29.9102 12.3156 30.4581 12.5038 30.9169C12.595 31.1391 12.7461 31.3482 12.9206 31.5364C13.0055 31.6279 13.1217 31.6713 13.2299 31.6588C13.7146 31.6027 13.9843 31.1091 14.2936 30.7715C14.6196 30.4158 14.9535 30.0591 15.0884 29.5479C15.2196 29.0508 15.5464 28.7119 15.8537 28.5504C16.4815 28.2204 17.1076 28.5754 17.2687 28.7366C17.4299 28.8977 17.5922 29.06 17.7134 29.2478C17.776 29.3448 17.7546 29.4889 17.6879 29.6242C17.3975 30.2139 16.8669 30.2716 16.6925 30.3794C16.5214 30.4851 16.3015 30.2732 16.1404 30.112C15.9793 29.9509 15.8969 29.6286 15.9235 29.2119C15.9423 28.9179 16.1384 28.7386 16.3129 28.6041C16.6499 28.3443 17.1601 28.5762 17.6718 28.7236C17.9379 28.8003 18.1843 28.8452 18.3724 28.8323C18.9315 28.7939 19.4216 28.0125 19.8663 27.796C20.3412 27.5648 20.9821 27.8477 21.6294 28.1845C22.0581 28.4075 21.9804 29.1658 22.0086 30.295C22.0232 30.8778 21.4182 31.1592 20.9869 31.3757C20.5986 31.5705 19.966 31.0542 19.4523 30.8519C19.0477 30.677 18.7787 30.4081 18.5772 30.2065C18.4823 30.1116 18.4023 30.0317 18.1584 29.7878" stroke="#95E66B" stroke-width="2" stroke-linecap="round"/>
</g>
<defs>
<clipPath id="clip0_7_2">
<rect width="48" height="91" fill="white"/>
</clipPath>
</defs>
</svg>
