<svg width="48" height="91" viewBox="0 0 48 91" fill="none" xmlns="http://www.w3.org/2000/svg">
<path d="M0.5 10.3811C0.606784 9.19997 1.03716 7.04808 1.52254 4.94148C1.99035 2.91121 2.22475 1.21692 2.60012 0.623122C2.76901 0.355945 3.29585 0.56326 3.67607 0.831843C5.2549 1.94711 5.67101 3.90275 6.96702 6.00449C7.2758 6.50525 7.61258 6.81509 8.25815 6.98013C11.2917 7.75563 15.8901 6.49797 19.2603 6.76655C22.1684 6.9983 24.763 2.19417 26.381 1.21368C26.7519 0.98895 27.2418 1.42402 27.4618 1.80101C28.4278 3.45597 28.4326 5.41069 28.706 7.13868C28.9825 8.88558 29.5134 10.5882 29.6768 13.3905C29.8593 16.5195 29.7335 20.6196 28.7659 22.4544C28.3355 22.9948 27.6948 23.6355 27.2046 24.1257C26.7143 24.616 26.3939 24.9363 25.4167 25.59" stroke="white" stroke-linecap="round"/>
<path d="M0.5 11.6754C0.5 15.4259 1.14071 21.0532 1.95292 22.5643C2.81144 24.1617 4.91382 24.5091 6.64179 25.1563C7.50255 25.2664 8.36978 25.4799 9.23055 25.9637C9.66416 26.2339 10.0913 26.5543 11.5022 26.8843" stroke="white" stroke-linecap="round"/>
<path d="M8.26605 25.9136C7.83891 27.6254 6.97169 31.2982 6.38112 33.5633C5.90142 35.4033 5.25016 37.1229 4.65475 38.8509C4.03318 40.6548 2.55787 43.5818 1.68901 46.1301C0.779468 48.7977 0.499819 53.9174 1.30394 57.2423C3.51246 59.0205 6.09797 60.9652 8.47316 62.9036C9.0168 63.3404 9.44394 63.554 9.56043 63.1269" stroke="white" stroke-linecap="round"/>
<path d="M27.0347 25.9136C27.2482 27.7354 27.8954 31.4017 28.3274 33.6183C28.6837 35.4466 29.9405 37.55 30.9679 39.5514C32.0421 41.644 33.5001 43.6983 34.2055 45.6463C34.8406 47.4001 35.1245 51.8723 34.1586 55.2991C32.8626 57.0821 31.5715 58.5901 30.0069 59.6175C29.6267 59.8877 29.3063 60.208 28.329 60.5381" stroke="white" stroke-linecap="round"/>
<path d="M36.0955 56.655C37.707 56.9754 40.7164 58.6936 42.6159 60.4783C44.4494 62.2009 45.9068 64.6284 46.986 68.2348C48.3974 72.9515 46.3534 79.3907 44.839 82.693C42.85 87.03 38.5872 88.3607 36.7491 89.0662C34.9678 89.7498 33.2996 90.5223 29.9068 90.4722C28.473 90.451 27.6853 89.2344 27.0931 88.3737C25.9223 86.6718 26.1741 84.0634 26.2242 82.2788C26.2757 80.4472 29.3971 79.2095 31.6639 77.4799C34.458 75.3479 35.2282 73.0612 35.5017 71.2232C35.9306 68.3398 35.1312 64.2142 34.1038 62.4862C33.8336 62.0525 33.5132 61.6254 33.1346 61.1918C32.756 60.7582 32.3289 60.331 30.918 60.5381" stroke="white" stroke-linecap="round"/>
<path d="M12.1152 57.7206C12.5352 59.1219 12.9594 60.8103 13.4142 62.3224C13.6539 63.1193 14.2236 63.6277 14.6795 63.9443C14.9007 64.098 15.205 64.0519 15.4181 63.9127C16.1927 62.8595 17.3154 61.5954 17.7776 60.0157C17.8135 59.2802 17.8135 58.0962 17.8135 57.2985" stroke="white" stroke-linecap="round"/>
<path d="M19.0801 58.1426C19.2194 58.7715 19.7808 60.1771 20.4139 61.3041C21.1219 62.5643 22.1023 62.9249 22.6636 63.1011C22.9357 63.1865 23.225 63.0684 23.473 62.7888C24.6119 61.5044 24.4955 59.9787 25.268 58.2196C25.4115 57.7944 25.4115 57.4461 25.4463 57.1275C25.4811 56.8088 25.5508 56.5302 25.4115 56.2432" stroke="white" stroke-linecap="round"/>
<path d="M14.0703 19.8881H15.1255" stroke="white" stroke-linecap="round"/>
<path d="M7.47168 15.8433C7.92726 15.7038 8.70206 15.281 9.26651 15.1388C9.54768 15.1731 9.86585 15.3835 10.1999 15.6826C10.3595 15.8074 10.499 15.8771 10.6428 15.949" stroke="white" stroke-linecap="round"/>
<path d="M19.522 15.6319C20.0484 15.4216 20.7524 15.0696 21.404 14.9623C21.6329 14.9966 21.9468 15.1013 22.1783 15.1726C22.4098 15.244 22.5493 15.2789 22.7988 15.5262" stroke="white" stroke-linecap="round"/>
<path d="M37.0159 11.5407C37.0159 11.4775 36.8895 11.3186 36.6349 11.1114C36.5173 11.0156 36.3803 10.9989 36.3152 11.0458C36.2501 11.0927 36.2501 11.219 36.3448 11.3789C36.7952 12.1387 37.3011 12.496 37.6845 12.9277C38.0679 12.5314 38.3234 11.958 38.6101 11.4469C38.6748 11.3186 38.7063 11.1922 38.8346 10.8706" stroke="white" stroke-width="2" stroke-linecap="round"/>
<path d="M9.75 26.3738C9.866 26.3738 10.33 26.4728 11.36 26.6725C13.0139 26.9933 14.199 27.2238 14.382 27.1908C14.7491 27.1246 15.115 26.9578 15.755 26.7913C16.377 26.6295 16.915 26.4908 17.2805 26.416C18.462 26.1744 19.649 26.2573 20.3683 26.2323C20.9882 26.2107 22.127 26.2238 22.7547 26.232C23.6508 26.2438 24.048 26.3238 24.6228 26.191C25.099 26.0908 25.432 25.9908 25.7238 25.9323C25.8155 25.9238 25.931 25.9238 26.05 25.9238" stroke="white" stroke-linecap="round"/>
<path d="M7.66248 28.7613C7.77848 28.7778 8.30847 28.9433 8.76122 29.0693C9.1195 29.169 9.70847 29.2613 10.2607 29.3525C10.7738 29.4373 11.2775 29.4443 11.6607 29.5028C12.2397 29.5912 12.5775 29.6443 12.8697 29.6778C13.213 29.7171 13.5275 29.8943 13.853 29.961C14.1751 30.0271 14.6105 30.0773 14.928 30.1278C15.2879 30.185 15.5445 30.2943 15.828 30.3528C16.1721 30.4238 16.4775 30.4113 16.8277 30.4528C17.2755 30.5058 17.7765 30.5113 18.5165 30.5528C20.2588 30.6505 20.7925 30.4453 21.1945 30.3948C21.6683 30.3353 22.0275 30.2283 22.361 30.1533C22.8738 30.038 23.1445 29.9953 23.4775 29.8703C24.3176 29.5549 25.0275 29.1953 25.3362 29.0618C25.7165 28.8973 26.0275 28.8283 26.328 28.803C26.4115 28.7948 26.5105 28.7783 26.5945 28.7615C26.6785 28.7448 26.7445 28.7283 26.8625 28.6613" stroke="white" stroke-linecap="round"/>
<path d="M26.1625 25.3613C26.229 25.4273 26.2955 25.7263 26.5032 26.1763C26.679 26.4773 26.7125 27.3043 26.7705 27.8603C26.7955 27.9273 26.8285 27.9933 26.9125 28.1113" stroke="white" stroke-linecap="round"/>
<path d="M8.96245 26.1613C8.89595 26.2273 8.79645 26.4933 8.6712 26.7603C8.62945 26.8933 8.61245 27.3408 8.59595 27.9488C8.57945 28.1773 8.54645 28.2433 8.51245 28.3113" stroke="white" stroke-linecap="round"/>
<path d="M25.7125 26.4113C25.7455 27.2763 25.8785 27.7763 25.954 28.1265C25.9752 28.2249 25.9625 28.3423 25.9295 28.3935C25.6513 28.8255 24.5475 28.4443 24.1805 28.5525C23.883 28.6403 23.6305 28.8443 23.3553 28.9525C23.0595 29.0688 22.7145 29.1603 22.256 29.319C21.7716 29.4868 21.4305 29.5273 21.122 29.6525C20.7557 29.8013 20.2305 29.7443 19.6493 29.8028C18.3533 29.9332 17.5845 29.8613 16.9478 29.7783C16.3326 29.6981 15.5005 29.6113 14.9973 29.5615C14.4901 29.5114 13.9315 29.3283 13.4475 29.2615C13.1381 29.2189 12.6165 29.0123 12.172 28.8783C11.9039 28.7975 11.6305 28.7613 11.322 28.67C11.0328 28.5845 10.6645 28.5283 10.206 28.4283C9.75586 28.3301 9.4475 28.3283 9.155 28.1958C8.54737 27.9205 9.2785 27.1963 9.3455 26.9288C9.36016 26.8703 9.4445 26.8453 9.528 26.8365C9.89749 26.7978 10.1945 26.9943 10.478 27.0943C10.8427 27.2229 11.3595 27.2113 12.0513 27.2943C12.8237 27.387 14.1175 27.3613 15.0443 27.27C15.4173 27.2333 15.9095 27.1613 16.6083 27.1198C18.4255 27.0119 18.6945 27.0613 19.061 27.0033C19.4828 26.9365 19.9105 26.8783 20.3443 26.8198C20.6764 26.775 20.9445 26.7613 21.8815 26.6783C23.2074 26.5608 24.145 26.6283 24.3278 26.57C24.7656 26.4305 25.2105 26.4113 25.5283 26.4028C25.641 26.3998 25.6125 26.6273 25.5878 26.7685C25.5291 27.1032 25.3135 27.3763 25.1713 27.6603C25.1392 27.7243 25.1295 27.7933 25.088 27.8355C25.0022 27.9229 24.83 27.8948 24.6555 27.845C24.2388 27.7262 24.0135 27.2303 23.9208 26.9288C23.8809 26.7992 24.2115 26.8113 24.411 26.8278C24.6159 26.8447 24.7785 26.9773 24.8868 27.1103C24.9368 27.1717 24.9455 27.2433 24.9128 27.302C24.7334 27.6238 24.1145 27.5603 23.7803 27.7688C23.4948 27.9469 23.2475 28.2763 23.154 28.4778C23.0082 28.792 23.379 27.7143 23.371 27.2643C23.3682 27.1094 23.2805 27.1113 23.23 27.1443C22.8905 27.3662 22.6965 27.9763 22.4468 28.2358C22.4109 28.273 22.3795 28.1793 22.3875 28.104C22.4211 27.7881 22.662 27.6123 22.7535 27.4953C22.7817 27.4593 22.8285 27.5433 22.8455 27.6185C22.9208 27.9519 22.6805 28.5243 22.4053 28.8605C22.287 29.005 22.0965 29.0113 21.9635 28.9865C21.8933 28.9735 21.8305 28.9123 21.78 28.8373C21.6722 28.6772 21.6625 28.2643 21.6708 27.8473C21.6731 27.727 21.6955 27.7933 21.704 27.8603C21.7376 28.1253 21.5965 28.3933 21.488 28.71C21.4577 28.7985 21.3805 28.8763 21.3218 28.9435C21.263 29.0108 21.2135 29.0603 21.188 28.8713C21.0352 27.739 21.262 27.4623 21.3535 27.3618C21.5884 27.1037 21.4955 28.1263 21.562 28.4523C21.7016 29.1365 22.479 27.1788 22.471 27.0538C22.4467 26.6745 21.4975 27.4933 21.2463 27.8268C21.2056 27.8807 21.3275 27.9273 21.403 27.936C21.5438 27.9523 21.695 27.8453 21.754 27.77C22.0177 27.4337 20.6675 28.4083 20.1555 28.8018C19.967 28.9466 19.813 29.0608 19.7958 29.045C19.3524 28.6402 20.3615 28.1473 20.5453 27.7128C20.5865 27.6151 20.5955 27.5133 20.6123 27.5035C20.8524 27.3638 20.6295 28.3083 20.6043 29.1333C20.5958 29.4103 20.579 29.5773 20.637 29.6443C20.9981 30.0614 21.0125 28.3453 20.9713 28.2205C20.9196 28.0644 20.614 28.0613 20.356 28.0778C19.8788 28.1083 19.4805 28.8263 19.2795 29.0775C19.0269 29.3933 19.8115 28.1803 19.9205 27.713C19.9477 27.5963 19.9785 27.4803 19.9048 27.5528C19.2806 28.1663 19.164 28.7918 18.939 29.1755C18.7459 29.5049 19.2955 27.9798 19.2053 28.0513C18.9847 28.226 18.8015 28.9973 18.6405 29.3213C18.4795 29.6453 18.4465 29.5793 18.4295 29.2565C18.3821 28.3574 18.396 27.8438 18.3463 28.01C18.1928 28.523 17.58 28.8938 17.5293 28.895C16.7178 28.915 18.0785 27.6473 18.1043 27.1708C18.1257 26.7746 17.6305 28.3753 17.38 28.8098C17.272 28.9971 17.2295 29.1938 17.2538 29.3105C17.2958 29.5127 18.1075 29.0473 18.9318 28.5895C19.4293 28.3132 19.777 27.9468 20.036 27.6053C20.5908 26.8738 17.795 28.1448 17.9613 28.1033C18.3487 28.0066 19.0905 27.6133 19.603 27.3785C19.6782 27.3441 19.7445 27.3283 19.7455 27.3115C19.7596 27.0746 19.0485 27.3273 18.1345 27.6923C16.9387 28.1698 16.0475 28.6108 15.8718 28.6858C15.3753 28.8976 17.5725 28.1483 17.9958 27.82C18.5456 27.3936 16.7635 29.2103 16.63 29.3273C16.5939 29.3589 16.811 29.0463 16.9948 28.7798C17.0557 28.6913 16.9475 28.6453 16.8555 28.6283C16.4697 28.557 16.0645 28.8433 15.7298 29.0028C15.389 29.1651 16.3775 28.5623 16.703 28.279C16.958 28.0571 17.1285 27.9283 17.1955 27.87C17.2538 27.8193 16.122 28.0918 14.565 28.5745C13.9453 28.7667 13.6845 28.8923 14.1178 28.7868C14.551 28.6813 15.6895 28.3513 16.3503 28.1813C17.011 28.0113 17.1595 28.0113 17.1783 28.0113C17.275 28.0113 16.781 28.0443 16.143 28.2263C14.9385 28.5699 14.1135 28.9773 13.9305 29.0938C13.8478 29.1464 13.7805 29.1773 13.8868 29.1778C14.8031 29.1821 15.6585 28.7463 15.954 28.5203C16.1695 28.3555 15.2485 28.3613 14.4585 28.3198C13.5417 28.2716 13.0285 28.3113 13.178 28.303C13.5681 28.2815 14.0595 28.1283 15.1833 27.854C15.4279 27.7943 15.5435 27.7783 15.636 27.7533C15.7285 27.7283 15.7945 27.6953 15.68 27.6783C14.6418 27.5241 13.6985 28.0103 13.1315 28.252C12.9687 28.3215 12.7665 28.3603 12.9285 28.3033C14.2876 27.8251 14.7605 27.6618 14.9863 27.5703C15.118 27.5169 14.399 27.4778 13.7343 27.544C12.1361 27.7033 11.0475 27.9113 10.9708 27.8783C10.5611 27.7022 12.0925 27.7113 12.18 27.7113C13.2475 27.7113 10.378 27.7113 10.5365 27.6783C10.5896 27.6672 10.5465 27.5793 10.4965 27.5453C10.3965 27.4773 10.1805 27.4948 9.92275 27.4698C9.7973 27.4576 9.6815 27.4613 10.018 27.6015C12.045 28.3278 12.3115 28.3778 12.4945 28.411C12.5785 28.4278 12.6445 28.4443 12.8625 28.5613" stroke="white" stroke-linecap="round"/>
<path d="M14.3429 27.71C14.263 27.4685 13.9407 27.0929 13.4569 26.8361C12.997 26.5919 12.4877 26.4177 12.0976 26.5376C11.3063 26.7809 11.6243 27.8957 11.5298 28.3812C11.4164 28.9632 11.6501 29.5111 11.8383 29.9699C11.9295 30.1921 12.0806 30.4012 12.2551 30.5894C12.3399 30.6809 12.4562 30.7243 12.5644 30.7117C13.0491 30.6557 13.3188 30.1621 13.6281 29.8245C13.954 29.4688 14.288 29.1121 14.4229 28.6008C14.554 28.1037 14.8808 27.7649 15.1882 27.6034C15.816 27.2734 16.4421 27.6284 16.6032 27.7895C16.7644 27.9507 16.9267 28.113 17.0479 28.3008C17.1104 28.3978 17.089 28.5419 17.0224 28.6772C16.7319 29.2669 16.2014 29.3245 16.0269 29.4324C15.8559 29.5381 15.636 29.3262 15.4749 29.165C15.3138 29.0039 15.2314 28.6816 15.258 28.2649C15.2768 27.9709 15.4729 27.7915 15.6473 27.6571C15.9844 27.3973 16.4946 27.6292 17.0063 27.7766C17.2723 27.8533 17.5187 27.8982 17.7069 27.8852C18.266 27.8469 18.7561 27.0654 19.2007 26.849C19.6756 26.6178 20.3165 26.9007 20.9639 27.2375C21.3926 27.4605 21.3148 28.2188 21.3431 29.348C21.3577 29.9308 20.7527 30.2122 20.3214 30.4286C19.9331 30.6235 19.3005 30.1072 18.7868 29.9049C18.3821 29.73 18.1132 29.461 17.9117 29.2595C17.8168 29.1646 17.7368 29.0847 17.4929 28.8407" stroke="#95E66B" stroke-width="2" stroke-linecap="round"/>
</svg>
