<svg width="25" height="12" viewBox="0 0 25 12" fill="none" xmlns="http://www.w3.org/2000/svg">
<path d="M21.4502 0.750183C21.4502 0.750183 21.0819 1.5353 20.3002 2.53183M20.3002 2.53183C19.5568 3.47983 18.4393 4.61924 16.9094 5.45607M20.3002 2.53183L23.7502 4.2796M12.2502 6.63254C10.401 6.63254 8.85528 6.1476 7.59115 5.45607M12.2502 6.63254C14.0994 6.63254 15.6452 6.1476 16.9094 5.45607M12.2502 6.63254V10.7502M7.59115 5.45607L4.20024 8.98548M7.59115 5.45607C6.14282 4.66383 5.06417 3.60054 4.32247 2.68524M16.9094 5.45607L19.7252 8.98548M3.05024 0.750183C3.05024 0.750183 3.45696 1.61703 4.32247 2.68524M4.32247 2.68524L0.750244 4.2796" stroke="#D9D9D9" stroke-width="1.5" stroke-linecap="round" stroke-linejoin="round"/>
</svg>
