<svg width="24" height="18" viewBox="0 0 24 18" fill="none" xmlns="http://www.w3.org/2000/svg">
<path d="M12.6765 8.61761C13.0501 8.61761 13.3529 8.16331 13.3529 7.6029C13.3529 7.0425 13.0501 6.5882 12.6765 6.5882C12.3029 6.5882 12 7.0425 12 7.6029C12 8.16331 12.3029 8.61761 12.6765 8.61761Z" stroke="#D9D9D9" stroke-linecap="round" stroke-linejoin="round"/>
<path d="M11.9998 13.3529C14.6151 13.3529 16.7351 11.2329 16.7351 8.61765C16.7351 6.00242 14.6151 3.88235 11.9998 3.88235C9.38459 3.88235 7.26453 6.00242 7.26453 8.61765C7.26453 11.2329 9.38459 13.3529 11.9998 13.3529Z" stroke="#D9D9D9" stroke-linecap="round" stroke-linejoin="round"/>
<path d="M0.5 8.61765C0.5 8.61765 4.60714 0.5 12 0.5C19.3929 0.5 23.5 8.61765 23.5 8.61765C23.5 8.61765 19.3929 16.7353 12 16.7353C4.60714 16.7353 0.5 8.61765 0.5 8.61765Z" stroke="#D9D9D9" stroke-linecap="round" stroke-linejoin="round"/>
</svg>
