<svg width="24" height="18" viewBox="0 0 24 18" fill="none" xmlns="http://www.w3.org/2000/svg">
<path d="M23.6509 8.86908C23.6509 13.7577 19.3419 17.7382 14.0572 17.7382C9.08163 17.7382 4.97557 14.2214 4.50217 9.72894H1.87429V17.7382H0V0H1.87429V8.00922H4.50217C4.97557 3.52637 9.07197 0 14.0572 0C19.3419 0 23.6509 3.98045 23.6509 8.86908ZM21.7766 8.86908C21.7766 4.92726 18.3082 1.72937 14.0475 1.72937C9.78691 1.72937 6.31849 4.93692 6.31849 8.86908C6.31849 12.8109 9.78691 16.0088 14.0475 16.0088C18.3082 16.0088 21.7766 12.8109 21.7766 8.86908Z" fill="white"/>
</svg>
