<svg width="35" height="40" viewBox="0 0 35 40" fill="none" xmlns="http://www.w3.org/2000/svg">
<path d="M34.9883 9.8814C34.9883 9.82004 34.9795 9.76453 34.9649 9.71194C34.9415 9.64181 34.9035 9.58045 34.8509 9.52786C34.8217 9.49572 34.7866 9.46942 34.7486 9.44312C34.6989 9.41098 18.0774 0.174965 17.9868 0.122372C17.9693 0.110684 17.9488 0.101919 17.9313 0.0931531C17.9079 0.0814656 17.8845 0.069778 17.8582 0.0610124C17.8494 0.0580905 17.8435 0.0551688 17.8348 0.0522469C17.8231 0.0464032 17.8114 0.0434813 17.7997 0.0405594C17.5716 -0.0354091 17.3611 -0.00326856 17.1243 0.125294C16.4285 0.508058 0.78356 9.1188 0.418093 9.32041C0.409322 9.32625 0.400551 9.32917 0.39178 9.33502C0.374238 9.3467 0.356695 9.35547 0.342076 9.36423C0.277754 9.40514 0.222204 9.45189 0.175424 9.50156C0.163729 9.51325 0.152034 9.52494 0.143263 9.53955C0.096483 9.59798 0.061398 9.66226 0.0380082 9.73823C0.0321607 9.75284 0.029237 9.77037 0.0233895 9.7879C0.0204658 9.79667 0.0204663 9.80544 0.0175426 9.8142C0.0146188 9.82297 0.0146185 9.83173 0.0116948 9.8405C0.00877102 9.84926 0.00877084 9.85803 0.00877084 9.86679C0.00292338 9.91354 0 9.96322 0 10.0158C0.00584746 16.6514 0.00584693 30.1475 0.00584693 30.165C0.00584693 30.1738 0.00584711 30.1855 0.00877084 30.1942C0.0116946 30.2264 0.0204661 30.2585 0.0292373 30.2877C0.0321611 30.3023 0.0380085 30.314 0.043856 30.3257C0.0526272 30.3432 0.0613982 30.3637 0.0701694 30.3783C0.0818643 30.3958 0.0935596 30.4134 0.105255 30.428C0.116949 30.4455 0.131568 30.4601 0.146187 30.4747C0.175424 30.5039 0.207585 30.5332 0.245593 30.5595C0.301144 30.5945 11.5487 36.8385 17.0015 39.8744C17.0103 39.8802 17.022 39.8861 17.0307 39.889C17.0483 39.8977 17.0658 39.9065 17.0834 39.9153C17.1009 39.924 17.1185 39.9299 17.136 39.9386C17.1448 39.9416 17.1535 39.9445 17.1623 39.9474C17.1857 39.9562 17.2091 39.9649 17.2325 39.9708C17.25 39.9766 17.2676 39.9795 17.2851 39.9825C17.3904 40.0058 17.4898 40.0058 17.595 39.9825C17.6155 39.9795 17.636 39.9737 17.6535 39.9679C17.6623 39.9649 17.674 39.962 17.6857 39.9591C17.6944 39.9562 17.7032 39.9533 17.7149 39.9503C17.7529 39.9357 17.788 39.9211 17.826 39.9007C17.8465 39.8919 17.864 39.8802 17.8845 39.8714C23.4483 36.8035 29.0151 33.7384 34.5819 30.6822C34.5995 30.6734 34.617 30.6617 34.6345 30.653C34.6521 30.6413 34.6667 30.6325 34.6842 30.6208C34.7193 30.5974 34.7515 30.5711 34.7778 30.5448C34.8012 30.5244 34.8217 30.5039 34.8421 30.4806C34.8567 30.463 34.8714 30.4426 34.886 30.4221C34.8889 30.4163 34.8947 30.4075 34.9006 30.3987C34.9035 30.3929 34.9094 30.3841 34.9123 30.3783C34.9152 30.3725 34.9211 30.3637 34.924 30.3549C34.9474 30.3111 34.962 30.2643 34.9766 30.2118C34.9883 30.1592 34.9971 30.1036 35 30.0452C34.9912 30.0248 34.9883 9.8814 34.9883 9.8814ZM20.2673 2.67024C20.2732 2.66732 20.2819 2.6644 20.2849 2.6644C24.5857 5.05156 28.8894 7.43872 33.1902 9.82589C33.199 9.83173 33.199 9.85219 33.2107 9.88433H33.2078C33.2078 9.88433 26.7083 9.88725 26.5095 9.88725C26.3662 9.88725 26.2697 9.84634 26.1762 9.74408C26.1703 9.73823 26.1645 9.72947 26.1586 9.7207C24.495 7.7426 20.3024 2.76958 20.2819 2.74621C20.2761 2.73744 20.2702 2.72868 20.2644 2.71991C20.2556 2.70822 20.2498 2.69361 20.2468 2.679C20.2556 2.67608 20.2615 2.67316 20.2673 2.67024ZM17.6272 1.2882L24.8342 9.84634C24.8254 9.84926 10.3003 9.86972 10.2945 9.86972L17.6272 1.2882ZM1.76886 9.83758C6.21586 7.38613 10.6599 4.93468 15.1069 2.48616L15.142 2.5183C14.8496 2.86308 10.7389 7.6754 8.97586 9.74115C8.93785 9.78498 8.90277 9.82004 8.86183 9.84634C8.85599 9.84926 8.85014 9.85219 8.84429 9.85511C8.83844 9.85803 8.82967 9.86095 8.82382 9.86679C8.8209 9.86972 8.81505 9.86972 8.81213 9.87264C8.80921 9.87264 8.80628 9.87556 8.80628 9.87556C8.80336 9.87556 8.80043 9.87556 8.80043 9.87848C8.79459 9.8814 8.79166 9.8814 8.78582 9.88433C8.77997 9.88433 8.77704 9.88725 8.7712 9.88725C8.76535 9.88725 8.7595 9.89017 8.75658 9.89017C8.75073 9.89017 8.74488 9.89309 8.73904 9.89309C8.72442 9.89601 4.13416 9.89309 1.85657 9.89309C1.8478 9.89309 1.83903 9.89309 1.83026 9.89309C1.80979 9.89309 1.78932 9.89017 1.76886 9.89017H1.76593C1.78932 9.86387 1.76301 9.89309 1.76301 9.86387C1.76009 9.84926 1.76301 9.84342 1.76886 9.83758ZM1.0964 26.8224V11.2634C1.0964 11.132 1.0964 11.0618 1.12856 11.0239C1.13148 11.0209 1.13148 11.018 1.13441 11.018C1.13733 11.0151 1.14026 11.0122 1.14318 11.0122C1.1461 11.0122 1.1461 11.0092 1.14903 11.0063C1.15195 11.0034 1.15487 11.0034 1.1578 11.0005C1.16072 10.9976 1.16657 10.9976 1.16949 10.9946C1.17534 10.9917 1.18119 10.9917 1.18704 10.9888C1.18996 10.9888 1.19288 10.9888 1.19288 10.9888C1.20165 10.9888 1.2075 10.9859 1.21627 10.9859C1.22212 10.9859 1.22504 10.9859 1.23089 10.9859C1.23674 10.9859 1.24259 10.9859 1.24551 10.9859C1.25136 10.9859 1.2572 10.9859 1.26305 10.9859C1.26598 10.9859 1.2689 10.9859 1.27182 10.9859C1.27767 10.9859 1.28352 10.9859 1.28937 10.9859C1.3186 10.9859 1.35076 10.9859 1.38877 10.9859H8.38527L1.1461 26.8312L1.0964 26.8224ZM1.37708 29.005C1.37415 28.9992 1.36831 28.9904 1.37123 28.9846C1.38293 28.9495 1.39462 28.9174 1.40924 28.8823C3.94996 23.3161 6.49361 17.75 9.0548 12.1371C11.5926 17.7851 14.1099 23.3921 16.639 29.0167H1.38585C1.38293 29.0138 1.38 29.0079 1.37708 29.005ZM16.9226 38.5741L1.77471 30.1621C1.79517 30.1329 1.81856 30.1241 1.84195 30.1212H1.84488C1.87119 30.1182 16.8261 30.127 16.8612 30.127H16.8641C16.867 30.127 16.8729 30.127 16.8758 30.127C16.8787 30.127 16.8846 30.127 16.8875 30.127C16.8904 30.127 16.8962 30.127 16.8992 30.1299C16.9372 30.1387 16.9576 30.165 16.9547 30.2147V38.3579C16.9518 38.4193 16.9664 38.4865 16.9226 38.5741ZM17.4693 28.1986C17.0658 27.2986 10.8266 13.4081 9.73895 10.9888H25.3312C24.4687 12.8734 17.7968 27.4798 17.4693 28.1986ZM18.0657 38.5157C18.0628 38.5069 18.0599 38.5011 18.0599 38.4923C18.057 38.4894 18.057 38.4836 18.057 38.4806C18.054 38.4748 18.054 38.4689 18.0511 38.4631C18.0482 38.4543 18.0424 30.3666 18.0424 30.3666C18.0424 30.0949 18.016 30.127 18.2675 30.127H33.2311C33.2341 30.1387 33.2399 30.1504 33.2428 30.1621L18.0657 38.5157ZM18.3406 29.0255C18.3377 29.0196 18.3347 29.0167 18.3347 29.0138C18.3347 29.0109 18.3318 29.0109 18.3318 29.0079C18.3318 29.005 18.3318 29.005 18.3289 29.005C18.326 29.0021 18.326 28.9992 18.323 28.9963C18.3201 28.9933 18.3201 28.9875 18.3201 28.9875C18.3201 28.9875 26.0446 12.0816 26.0505 12.0728C26.0505 12.0728 26.0534 12.0757 26.0563 12.0816C26.0563 12.0816 33.6639 29.0196 33.6668 29.0284L18.3406 29.0255ZM33.8978 11.0969C33.8948 11.132 33.8978 26.6821 33.8978 26.6821L33.8539 26.6938C32.5938 23.8888 27.9012 13.4432 26.8135 11.0209C26.8603 10.9596 26.913 10.9829 26.9597 10.9829C26.9597 10.9829 33.7662 10.9859 33.7954 10.9829C33.8831 10.9683 33.9036 11.0209 33.8978 11.0969Z" fill="white"/>
</svg>
